<?xml version="1.0" standalone="no"?>
<!DOCTYPE svg PUBLIC "-//W3C//DTD SVG 20010904//EN"
 "http://www.w3.org/TR/2001/REC-SVG-20010904/DTD/svg10.dtd">
<svg version="1.0" xmlns="http://www.w3.org/2000/svg"
 width="373.000000pt" height="507.000000pt" viewBox="0 0 373.000000 507.000000"
 preserveAspectRatio="xMidYMid meet">
<metadata>
Created by potrace 1.16, written by Peter Selinger 2001-2019
</metadata>
<g transform="translate(0.000000,507.000000) scale(0.100000,-0.100000)"
fill="#000000" stroke="none">
<path d="M1609 5063 c235 -3 253 -5 248 -21 -3 -9 -20 -57 -37 -106 -57 -165
-112 -497 -126 -759 -4 -70 -10 -129 -13 -132 -14 -8 -411 197 -511 263 -143
96 -225 166 -507 435 -133 127 -248 234 -256 238 -7 5 -69 5 -137 2 l-123 -6
6 -206 c6 -230 7 -236 97 -483 99 -272 270 -649 381 -840 22 -36 39 -71 39
-76 0 -5 -87 -14 -192 -21 -106 -6 -230 -14 -275 -17 l-83 -6 0 -112 0 -111
50 -22 c40 -17 51 -27 57 -55 7 -26 20 -39 62 -62 53 -28 211 -172 211 -191 0
-6 -86 -68 -191 -140 -241 -164 -258 -179 -270 -232 -5 -24 -13 -62 -19 -85
-5 -24 -9 -75 -10 -115 l0 -72 33 -6 c17 -3 95 -14 172 -26 77 -11 141 -22
142 -23 1 -1 -20 -47 -47 -101 -26 -55 -56 -129 -65 -165 -16 -61 -34 -242
-35 -342 l0 -48 114 0 c66 0 117 4 121 10 3 6 12 10 20 10 17 0 22 -27 34
-181 12 -143 31 -200 112 -331 l62 -100 126 4 c149 4 163 10 211 94 64 114
170 201 314 258 88 36 129 31 205 -21 43 -30 72 -64 137 -161 211 -315 375
-457 738 -639 242 -121 309 -183 355 -325 l13 -38 406 2 c394 2 399 3 142 8
-146 3 -257 8 -248 12 26 11 50 109 57 227 l6 105 37 -33 c21 -18 47 -48 59
-67 l21 -35 112 3 c111 3 111 3 114 28 2 15 12 30 25 35 21 9 22 17 25 122 5
191 -8 276 -57 374 -23 46 -51 93 -62 105 -10 11 -19 27 -19 35 0 9 56 45 138
88 75 41 152 84 169 95 l33 21 0 149 0 148 -57 -6 c-170 -17 -329 -18 -415 -2
-112 21 -206 51 -236 74 l-24 18 25 60 c37 92 51 162 39 187 -6 12 -16 41 -22
64 -9 37 -15 43 -43 47 -77 12 -137 14 -142 6 -3 -4 -13 -6 -23 -4 -11 3 -21
-3 -27 -18 -8 -20 -19 -23 -67 -26 -96 -5 -134 37 -63 71 30 14 35 15 35 2 0
-17 16 -20 25 -6 3 6 0 15 -7 20 -58 48 -78 61 -92 61 -35 0 -30 38 14 106 12
20 11 25 -18 54 -38 38 -49 73 -32 105 15 28 8 53 -17 62 -24 9 -34 25 -27 45
6 21 -15 35 -27 17 -7 -12 -9 -11 -9 2 0 23 21 39 51 39 30 0 47 15 27 23 -7
3 -3 6 10 6 27 1 28 12 2 36 -23 21 -29 55 -6 36 11 -9 22 -6 51 14 38 25 85
34 85 14 0 -5 -4 -8 -9 -4 -16 9 -48 -33 -59 -77 -12 -47 -6 -72 15 -63 12 4
14 0 9 -22 -19 -85 -18 -139 3 -181 11 -22 21 -54 21 -70 0 -17 9 -37 21 -48
36 -32 41 -51 24 -83 -27 -54 -21 -65 32 -57 59 8 75 22 48 42 -18 14 -16 15
30 9 28 -4 72 -13 99 -21 36 -10 53 -11 63 -3 10 9 17 6 32 -12 22 -27 38 -21
22 8 -5 10 -12 30 -15 44 -5 21 -19 32 -67 53 -33 14 -68 26 -78 26 -10 0 -28
11 -41 25 -19 20 -33 25 -74 25 -46 0 -48 1 -30 15 19 14 18 14 -3 15 -16 0
-23 6 -23 19 0 10 -9 21 -20 24 -15 4 -20 14 -20 36 0 17 5 31 10 31 6 0 10 9
10 20 0 11 -7 20 -15 20 -11 0 -15 11 -15 43 0 24 -5 48 -11 54 -18 18 -3 41
35 59 19 9 39 26 44 38 10 20 11 19 11 -6 1 -32 21 -39 21 -7 0 12 -16 37 -35
56 -19 19 -35 44 -35 54 0 16 -6 19 -27 17 -23 -3 -30 3 -45 34 -9 20 -44 57
-76 82 -33 26 -74 67 -91 91 -34 47 -51 50 -51 10 0 -36 -18 -75 -34 -75 -18
0 -25 -30 -27 -105 l-2 -60 -8 64 c-4 35 -10 65 -12 68 -3 2 -14 -12 -26 -32
-18 -31 -21 -52 -21 -138 1 -74 5 -107 15 -121 11 -15 15 -48 15 -127 0 -61 4
-110 10 -114 6 -3 10 -27 10 -52 0 -24 8 -58 17 -74 19 -32 11 -51 -13 -27
-17 17 -33 77 -34 126 l0 32 -100 0 c-66 0 -103 -4 -111 -12 -8 -9 -42 -12
-108 -11 l-96 1 72 -8 c107 -12 279 -101 391 -203 85 -77 81 -80 61 41 -35
217 -49 441 -30 471 7 11 17 8 49 -15 40 -28 40 -30 35 -79 -2 -27 -9 -62 -15
-77 -8 -20 -5 -36 11 -72 11 -25 25 -46 32 -46 6 0 9 7 5 15 -3 9 0 15 9 15
17 0 21 -75 5 -100 -7 -11 -10 -7 -10 18 0 20 -4 31 -10 27 -11 -7 -13 -54 -4
-79 3 -9 10 -13 15 -10 12 7 48 -36 49 -58 0 -25 -15 -22 -29 4 -11 21 -11 20
-6 -9 3 -26 1 -33 -12 -33 -14 0 -14 -3 3 -21 17 -19 19 -19 26 -2 8 18 6 -9
-7 -73 l-5 -29 14 29 14 30 16 -32 c16 -32 14 -58 -5 -47 -5 4 -9 -1 -9 -9 0
-9 -4 -16 -10 -16 -37 0 43 -142 89 -158 20 -7 32 -7 40 1 8 8 17 5 33 -10 13
-12 35 -25 50 -28 24 -6 26 -10 17 -32 -8 -23 -8 -24 6 -13 21 18 19 -4 -3
-23 -13 -12 -37 -17 -85 -17 -56 0 -70 4 -96 26 -17 14 -35 23 -41 19 -5 -3
-10 1 -10 9 0 9 5 16 11 16 21 0 -2 19 -31 25 -17 4 -30 11 -30 16 0 6 9 7 21
4 15 -5 19 -4 15 4 -9 14 -49 14 -64 -1 -9 -9 -13 -7 -18 6 -6 15 -10 14 -39
-8 l-32 -25 -24 25 c-22 23 -23 26 -7 35 16 9 16 12 3 33 -9 13 -13 31 -9 40
7 19 15 20 34 4 12 -11 12 -10 0 7 -18 25 -41 45 -53 45 -5 0 -4 -7 3 -15 7
-8 8 -15 2 -15 -14 0 -34 26 -31 42 2 7 -2 23 -9 35 -9 16 -9 23 -2 23 6 0 8
5 5 10 -9 14 -35 -7 -35 -27 0 -8 -4 -11 -10 -8 -5 3 -10 14 -10 24 0 10 -10
25 -22 34 -29 19 -18 33 14 17 22 -11 22 -11 3 5 -13 10 -30 14 -47 11 -16 -3
-28 -1 -28 4 0 6 -6 10 -13 10 -14 0 -47 35 -47 50 0 5 -18 13 -40 16 -22 4
-43 11 -46 15 -3 5 -14 9 -25 9 -11 0 -17 -4 -14 -10 9 -15 -8 -12 -31 5 -18
14 -18 14 6 16 18 1 20 3 7 6 -10 3 -27 -3 -36 -12 -10 -9 -25 -15 -32 -13 -9
2 -14 -5 -13 -19 0 -13 -5 -23 -13 -23 -17 0 -30 -31 -43 -105 -5 -32 -15 -64
-20 -69 -13 -13 -42 18 -61 69 -12 31 -20 40 -37 39 -17 0 -21 4 -16 18 6 20
-24 108 -37 108 -4 0 -9 -8 -12 -18 -2 -10 -7 -2 -11 21 -10 45 -1 101 19 117
17 14 21 45 5 35 -16 -10 -12 21 5 35 27 23 18 47 -21 54 -19 4 -42 10 -50 13
-11 4 -14 -6 -14 -48 0 -65 -8 -77 -68 -105 -20 -10 -28 5 -10 19 16 13 38 99
38 148 0 22 5 29 19 29 10 0 25 7 32 16 12 15 11 16 -7 10 -18 -6 -21 -3 -20
24 1 16 4 30 9 30 4 0 7 5 7 10 0 6 -27 9 -62 9 -50 -1 -57 -3 -33 -9 24 -6
17 -8 -32 -9 -36 0 -63 3 -63 9 0 6 -18 10 -39 10 -22 0 -43 5 -46 10 -4 6 7
10 25 10 18 0 33 6 36 15 4 10 20 15 50 15 24 0 44 5 44 10 0 6 -10 8 -24 4
-13 -3 -26 -1 -30 4 -3 5 7 12 22 15 15 3 43 19 62 36 19 17 45 39 57 50 13
11 25 16 28 10 9 -14 25 -11 25 5 0 8 -17 21 -37 31 -82 36 -93 45 -93 76 0
30 -13 36 -39 20 -11 -7 -18 -4 -26 12 -6 12 -20 26 -32 31 -14 7 -23 22 -27
47 -3 20 -13 42 -21 49 -21 17 -20 -3 3 -38 l17 -27 -26 21 c-15 11 -45 26
-68 34 -40 13 -50 23 -32 34 5 3 14 -1 21 -9 7 -8 17 -15 22 -15 17 0 -3 20
-40 39 -20 10 -52 37 -70 60 -31 39 -32 42 -18 63 17 24 22 63 7 54 -5 -3 -14
1 -21 9 -21 26 -30 16 -13 -13 18 -31 12 -62 -12 -62 -9 0 -14 8 -12 22 1 14
-4 23 -13 23 -8 0 -18 17 -25 43 -9 40 -11 41 -23 21 -13 -20 -14 -19 -45 22
-18 23 -36 49 -42 58 -5 9 -18 26 -27 40 -20 27 -16 41 10 35 9 -3 39 2 65 10
l48 14 219 -221 c120 -122 253 -251 296 -287 123 -103 127 -107 119 -137 -4
-16 -2 -29 5 -33 9 -6 9 -13 0 -30 -9 -18 -8 -32 6 -73 10 -29 20 -92 23 -142
l6 -90 33 3 32 3 0 -112 c0 -83 3 -110 11 -102 12 12 14 785 2 877 l-6 48
-199 -4 -199 -4 -5 22 c-8 33 -34 52 -74 56 -34 3 -35 4 -40 56 -6 55 -15 67
-60 78 -14 4 -31 11 -37 17 -20 15 -15 51 7 65 15 9 20 23 20 55 0 46 7 60 31
69 31 12 33 189 3 250 -8 15 -14 52 -14 83 l0 55 -115 0 c-110 0 -116 -1 -137
-25 -18 -21 -30 -25 -79 -25 -66 0 -109 13 -109 34 0 7 -6 19 -14 25 -8 6 -19
31 -25 54 -6 26 -22 54 -41 70 -28 25 -30 32 -30 93 0 52 3 64 13 56 6 -5 44
-12 82 -14 63 -3 75 -8 120 -42 52 -40 62 -60 64 -133 l1 -43 92 0 c112 0 304
-36 330 -62 10 -10 28 -18 40 -18 31 0 178 -72 178 -87 0 -7 9 -22 20 -33 16
-16 20 -33 20 -85 l0 -64 38 -7 c66 -13 297 -10 314 4 12 10 20 8 41 -8 14
-11 29 -29 32 -40 5 -16 15 -20 48 -20 25 0 54 -8 72 -20 16 -10 53 -22 82
-26 45 -5 54 -10 59 -30 7 -26 19 -31 99 -37 66 -5 124 -33 131 -63 5 -20 13
-24 43 -24 36 0 36 0 14 -18 -14 -10 -25 -33 -29 -58 -6 -41 -7 -42 -58 -50
l-51 -8 75 -6 c81 -7 200 -47 200 -67 0 -7 8 -13 18 -13 10 0 26 -6 37 -13 15
-12 10 -13 -41 -11 -32 2 -74 6 -91 10 -18 3 -48 3 -67 0 -33 -6 -34 -8 -29
-41 4 -23 2 -35 -6 -35 -8 0 -9 -5 -2 -19 6 -10 7 -21 4 -25 -3 -3 9 -6 27 -6
27 0 31 -3 22 -12 -22 -22 -14 -41 13 -34 22 6 26 3 31 -23 4 -17 15 -38 25
-47 25 -22 24 -44 -1 -44 -11 0 -20 -4 -20 -9 0 -5 23 -8 52 -8 33 1 53 -2 55
-10 3 -7 13 -13 24 -13 21 0 25 -15 7 -26 -16 -10 20 -34 53 -34 14 0 32 -7
39 -15 7 -8 17 -15 22 -15 5 0 16 -7 24 -15 9 -8 26 -15 38 -15 21 0 24 6 30
61 6 47 10 59 22 55 16 -6 19 9 4 19 -15 9 -12 32 5 39 22 8 40 -41 26 -71 -8
-16 -6 -32 5 -59 8 -20 14 -55 12 -77 -3 -36 -7 -43 -27 -45 -13 -2 -27 2 -32
9 -6 10 -13 11 -31 1 -13 -6 -35 -16 -50 -21 -23 -9 -26 -14 -19 -33 7 -19 17
-24 55 -26 30 -2 49 -8 53 -18 4 -12 8 -12 19 3 13 17 15 17 29 -1 9 -12 15
-41 15 -71 0 -28 5 -56 12 -63 7 -7 37 -12 67 -12 52 0 53 1 37 19 -19 21 -38
123 -30 157 3 13 14 26 24 29 39 12 183 -39 233 -83 24 -21 21 -65 -8 -108
-14 -20 -25 -49 -25 -64 0 -15 -8 -37 -17 -48 -16 -19 -23 -20 -63 -12 -25 5
-80 9 -122 10 -68 0 -79 2 -89 21 -10 19 -17 21 -69 15 -32 -4 -61 -3 -64 2
-3 5 1 35 9 67 10 43 10 65 3 79 -10 19 -12 19 -34 -7 -13 -15 -31 -27 -42
-27 -10 0 -23 -5 -30 -12 -7 -7 -12 -8 -12 -4 0 5 -23 -12 -50 -38 -28 -26
-54 -45 -59 -42 -5 3 -11 -1 -15 -9 -4 -12 5 -15 54 -15 32 0 70 4 84 10 33
12 34 -2 1 -20 -47 -25 -31 -38 105 -86 118 -41 150 -56 235 -113 58 -40 63
-41 143 -41 47 0 97 6 115 14 39 16 96 79 171 188 l55 80 4 -39 c2 -21 4 55 5
169 2 175 0 207 -12 202 -16 -6 -377 168 -396 192 -9 10 -15 63 -19 152 -7
165 -10 171 -161 342 -56 63 -154 185 -216 270 -63 85 -157 211 -208 279 -90
117 -98 133 -166 303 -85 214 -203 566 -260 773 -22 83 -43 158 -46 168 -5 16
-34 17 -447 15 -281 -2 -350 -4 -188 -5z m481 -393 c30 -121 20 -135 -17 -25
l-31 90 -12 -48 c-7 -26 -16 -50 -21 -53 -5 -3 -9 -20 -9 -39 0 -31 -14 -54
-26 -42 -7 7 11 76 43 166 32 90 40 84 73 -49z m-1610 -172 c0 -5 -4 -8 -10
-8 -5 0 -10 10 -10 23 0 18 2 19 10 7 5 -8 10 -18 10 -22z m205 12 c10 -11 13
-20 7 -20 -6 0 -16 9 -22 20 -6 11 -9 20 -7 20 2 0 12 -9 22 -20z m1281 -48
c-15 -15 -16 -14 -16 7 0 12 6 32 12 44 13 22 13 21 16 -7 2 -17 -3 -35 -12
-44z m183 21 c25 -51 71 -170 71 -183 0 -5 -9 -6 -20 -3 -15 4 -18 11 -13 36
5 25 4 29 -10 24 -13 -5 -17 -1 -17 18 0 22 -16 68 -41 117 -11 22 -11 38 -1
38 4 0 18 -21 31 -47z m-1628 0 c13 -16 12 -17 -3 -4 -10 7 -18 15 -18 17 0 8
8 3 21 -13z m1449 -68 c0 -8 -4 -15 -10 -15 -5 0 -10 7 -10 15 0 8 5 15 10 15
6 0 10 -7 10 -15z m-30 -167 c-7 -68 -17 -127 -22 -132 -11 -13 -10 25 2 121
15 117 21 146 27 140 3 -3 -1 -61 -7 -129z m298 -34 l-3 -39 -16 31 c-11 22
-13 37 -7 49 15 26 30 3 26 -41z m50 -101 c23 -56 48 -134 57 -181 4 -18 13
-36 21 -39 8 -3 11 -9 8 -14 -16 -27 -54 12 -54 56 0 18 -6 35 -13 38 -7 3
-19 31 -27 63 -8 33 -20 69 -28 81 -13 21 -10 43 7 43 5 0 18 -21 29 -47z
m-481 15 c-3 -8 -6 -5 -6 6 -1 11 2 17 5 13 3 -3 4 -12 1 -19z m0 -110 c-3 -8
-6 -5 -6 6 -1 11 2 17 5 13 3 -3 4 -12 1 -19z m-702 1 c11 -17 0 -20 -21 -4
-17 13 -17 14 -2 15 9 0 20 -5 23 -11z m815 -69 c0 -27 5 -61 10 -75 8 -20 7
-30 -6 -42 -23 -23 -14 -57 16 -62 14 -1 27 -7 30 -11 10 -16 124 -80 142 -80
11 0 33 7 49 16 17 8 33 13 36 10 3 -2 -9 -12 -26 -21 -17 -8 -31 -20 -31 -25
0 -19 152 -84 243 -104 39 -9 139 -47 135 -52 -2 -2 -32 6 -67 16 -34 11 -82
20 -106 20 -30 0 -47 5 -53 16 -5 10 -27 18 -55 21 -26 3 -44 9 -41 14 6 11
-39 39 -211 132 -186 101 -185 100 -185 148 0 37 1 39 25 33 42 -10 75 19 75
67 0 24 4 38 10 34 6 -3 10 -28 10 -55z m480 -149 c0 8 8 4 19 -11 34 -43 6
-56 -34 -15 -30 29 -34 56 -5 30 15 -14 20 -15 20 -4z m130 -1 c6 -11 8 -20 6
-20 -3 0 -10 9 -16 20 -6 11 -8 20 -6 20 3 0 10 -9 16 -20z m-547 -5 c-1 -5
-14 -11 -28 -13 -19 -3 -24 0 -19 13 7 17 51 17 47 0z m83 1 c10 -8 16 -17 13
-20 -3 -4 -17 2 -30 13 -27 23 -13 28 17 7z m74 -72 c0 -15 -10 -17 -34 -8
-27 10 -19 32 9 26 14 -2 25 -11 25 -18z m329 -18 l22 -23 -23 -8 c-22 -6 -21
-7 9 -15 38 -9 63 -27 63 -46 0 -7 9 -15 20 -19 11 -3 28 -17 39 -31 10 -13
29 -24 42 -24 13 0 33 -12 45 -26 19 -22 26 -24 44 -14 20 11 21 10 15 -9 -5
-16 -1 -23 20 -31 14 -5 29 -18 32 -27 4 -10 16 -27 26 -38 28 -29 80 -106 75
-110 -2 -3 -35 17 -74 42 -38 26 -112 70 -164 99 -54 29 -94 57 -92 64 2 7 -9
26 -24 41 -22 23 -30 26 -41 17 -17 -14 -33 4 -33 37 0 19 -9 39 -53 114 -17
31 -17 31 6 31 13 0 34 -11 46 -24z m-684 4 c3 -5 2 -10 -4 -10 -5 0 -13 5
-16 10 -3 6 -2 10 4 10 5 0 13 -4 16 -10z m159 -5 c25 -19 9 -19 -24 0 -14 8
-19 14 -10 14 8 0 24 -6 34 -14z m-1094 -58 c0 -18 -2 -19 -10 -7 -13 20 -13
43 0 35 6 -3 10 -16 10 -28z m1475 -11 c37 -16 47 -36 17 -36 -25 0 -111 30
-118 41 -8 14 63 10 101 -5z m75 4 c0 -5 -7 -10 -15 -10 -8 0 -15 5 -15 10 0
6 7 10 15 10 8 0 15 -4 15 -10z m55 -78 c-1 -1 -10 0 -19 4 -16 6 -22 44 -9
58 6 5 32 -54 28 -62z m-1480 -103 c14 -22 -3 -18 -26 7 -23 25 -23 26 -2 15
12 -6 25 -16 28 -22z m1937 -320 c45 -12 80 -52 107 -124 22 -58 29 -113 12
-86 -5 8 -25 15 -43 15 -24 1 -33 6 -33 18 0 10 -6 23 -13 30 -6 6 -12 18 -12
24 0 20 -50 73 -104 111 l-51 35 50 -7 c28 -3 67 -11 87 -16z m-182 -4 c-7 -8
-18 -15 -24 -15 -6 0 -2 7 8 15 25 19 32 19 16 0z m-1827 -82 c25 -27 53 -55
61 -63 9 -8 36 -36 61 -62 24 -27 48 -48 52 -48 5 -1 17 -20 28 -43 14 -26 30
-43 45 -47 30 -7 38 -33 39 -134 1 -74 -1 -82 -26 -109 -28 -28 -28 -31 -26
-145 1 -64 5 -149 8 -189 l7 -72 116 -3 117 -3 3 -72 3 -72 76 -3 77 -3 11
-46 c15 -55 60 -142 95 -179 14 -15 38 -44 53 -64 16 -20 34 -36 42 -36 8 0
20 -9 28 -20 21 -30 61 -40 156 -40 l89 0 7 125 c7 118 13 142 32 112 4 -7 21
-21 37 -31 15 -10 92 -79 170 -153 192 -184 195 -187 245 -218 24 -15 46 -35
48 -46 5 -18 17 -24 67 -31 17 -3 25 -13 46 -58 4 -9 27 -17 60 -20 40 -5 57
-11 68 -28 10 -15 25 -22 46 -22 49 0 63 -13 47 -44 -10 -18 -13 -58 -9 -155
l5 -131 -29 0 c-16 0 -36 -9 -45 -20 -10 -11 -27 -20 -38 -20 -31 0 -43 -12
-47 -45 -2 -20 -11 -34 -28 -42 -31 -15 -38 -38 -39 -125 -1 -49 -5 -68 -14
-68 -16 0 -102 53 -111 69 -4 6 -23 18 -43 26 -19 8 -44 26 -55 40 -11 14 -30
25 -44 25 -14 0 -24 6 -24 14 0 21 -39 46 -70 46 -32 0 -50 17 -50 46 0 29
-19 43 -71 52 -32 6 -45 13 -48 27 -2 11 -9 24 -17 28 -8 4 -14 15 -14 23 0 8
-12 20 -27 27 -36 15 -43 25 -43 63 0 70 -10 92 -45 98 -41 8 -61 31 -68 80
-8 48 -26 67 -74 81 -26 7 -45 23 -68 55 -41 59 -80 77 -197 89 -120 13 -291
14 -303 2 -12 -11 -124 -41 -154 -41 -12 0 -40 -14 -63 -30 -22 -17 -46 -30
-52 -30 -6 0 -31 -14 -56 -30 -35 -24 -56 -30 -97 -30 -61 0 -103 14 -103 34
0 7 11 17 25 20 22 6 25 11 25 56 l0 50 80 0 80 0 0 120 0 120 -66 0 c-90 0
-100 7 -108 80 -8 71 -19 80 -103 81 -64 1 -62 4 10 14 44 6 47 8 47 35 0 45
16 77 42 83 13 3 49 11 81 17 l57 11 0 142 c0 78 -3 151 -6 162 -11 42 -40 49
-216 53 l-168 4 0 -43 c0 -32 -3 -40 -11 -32 -21 21 -1 83 32 101 17 9 56 36
87 59 31 23 66 43 77 43 25 0 120 44 129 59 4 6 32 18 62 27 l54 15 0 109 c0
117 -4 140 -26 140 -8 0 -22 8 -32 18 -10 9 -27 22 -37 28 -22 12 -32 29 -39
65 -4 20 -14 28 -37 33 -18 3 -38 15 -46 26 -8 11 -18 20 -23 20 -5 0 -21 5
-37 12 l-28 11 35 7 c19 4 65 8 101 9 l66 1 46 -47z m437 17 c0 -5 -2 -10 -4
-10 -3 0 -8 5 -11 10 -3 6 -1 10 4 10 6 0 11 -4 11 -10z m1533 -7 c2 -5 -2
-19 -9 -33 -11 -21 -14 -22 -20 -7 -11 29 15 65 29 40z m37 -73 c20 -20 26
-40 13 -40 -10 0 -53 42 -53 52 0 14 19 9 40 -12z m60 -81 c0 -6 -4 -7 -10 -4
-5 3 -10 11 -10 16 0 6 5 7 10 4 6 -3 10 -11 10 -16z m77 -61 c-3 -7 -5 -2 -5
12 0 14 2 19 5 13 2 -7 2 -19 0 -25z m-1710 -200 c-3 -8 -6 -5 -6 6 -1 11 2
17 5 13 3 -3 4 -12 1 -19z m1223 5 c0 -3 -7 -15 -16 -25 -16 -16 -15 -18 0
-24 16 -6 46 -53 46 -73 0 -14 -81 -5 -92 10 -6 10 -11 10 -14 3 -5 -12 -54
-7 -54 6 0 4 7 10 15 14 8 3 15 11 15 18 0 17 36 48 55 48 9 0 18 7 21 15 6
15 24 21 24 8z m128 -78 c13 5 14 3 6 -5 -14 -14 -86 -9 -91 7 -3 7 9 13 29
15 21 2 34 -2 36 -10 2 -8 11 -11 20 -7z m-1408 -139 c0 -2 -7 -6 -15 -10 -8
-3 -15 -1 -15 4 0 6 7 10 15 10 8 0 15 -2 15 -4z m1720 -100 c0 -3 -4 -8 -10
-11 -5 -3 -10 -1 -10 4 0 6 5 11 10 11 6 0 10 -2 10 -4z m-470 -95 c0 -6 -4
-13 -10 -16 -5 -3 -10 1 -10 9 0 9 5 16 10 16 6 0 10 -4 10 -9z m-1810 -72 c0
-5 -7 -9 -15 -9 -15 0 -20 12 -9 23 8 8 24 -1 24 -14z m2730 -44 c-7 -8 -17
-15 -22 -15 -6 0 -5 7 2 15 7 8 17 15 22 15 6 0 5 -7 -2 -15z m-140 -35 c0 -5
-4 -10 -10 -10 -5 0 -10 5 -10 10 0 6 5 10 10 10 6 0 10 -4 10 -10z m-1430
-295 c5 3 11 1 15 -5 8 -13 -11 -13 -35 0 -17 9 -18 14 -7 43 l12 32 3 -38 c2
-20 7 -35 12 -32z m750 -70 l9 -40 -19 25 c-28 36 -33 57 -18 74 11 12 13 12
16 -2 2 -10 8 -35 12 -57z m214 59 c3 -8 -2 -27 -12 -42 -10 -15 -22 -35 -27
-45 -12 -23 -29 -24 -33 -2 -4 17 44 105 57 105 5 0 12 -7 15 -16z m-934 -45
c0 -6 -4 -7 -10 -4 -5 3 -10 11 -10 16 0 6 5 7 10 4 6 -3 10 -11 10 -16z m770
-64 c0 -8 -7 -15 -15 -15 -16 0 -20 12 -8 23 11 12 23 8 23 -8z m490 -525 c0
-5 -4 -10 -10 -10 -5 0 -10 5 -10 10 0 6 5 10 10 10 6 0 10 -4 10 -10z m-70
-435 c0 -8 -2 -15 -4 -15 -2 0 -6 7 -10 15 -3 8 -1 15 4 15 6 0 10 -7 10 -15z
m-245 -66 c8 -24 8 -24 -25 -34 -20 -6 -23 -5 -12 6 6 7 12 21 12 31 0 25 17
23 25 -3z"/>
<path d="M1218 2963 c7 -3 16 -2 19 1 4 3 -2 6 -13 5 -11 0 -14 -3 -6 -6z"/>
<path d="M1380 2902 c0 -12 19 -26 26 -19 2 2 -2 10 -11 17 -9 8 -15 8 -15 2z"/>
<path d="M2640 2840 c0 -5 5 -10 11 -10 5 0 7 5 4 10 -3 6 -8 10 -11 10 -2 0
-4 -4 -4 -10z"/>
<path d="M1577 2763 c-28 -7 -9 -23 29 -23 24 0 34 4 32 13 -5 13 -32 18 -61
10z"/>
<path d="M3040 2550 c12 -22 30 -18 30 6 0 8 -9 14 -20 14 -18 0 -19 -3 -10
-20z"/>
<path d="M1601 2506 c-8 -9 -11 -19 -7 -23 9 -9 29 13 24 27 -2 8 -8 7 -17 -4z"/>
<path d="M1670 2510 c0 -5 5 -10 10 -10 6 0 10 5 10 10 0 6 -4 10 -10 10 -5 0
-10 -4 -10 -10z"/>
<path d="M2635 2479 c-10 -15 3 -25 16 -12 7 7 7 13 1 17 -6 3 -14 1 -17 -5z"/>
<path d="M2766 2448 c-13 -47 -28 -95 -32 -105 -4 -10 9 -13 49 -13 35 0 54 4
55 13 1 6 4 26 8 44 5 29 2 34 -27 52 -39 24 -48 26 -53 9z m64 -63 c7 -8 8
-15 2 -15 -5 0 -15 7 -22 15 -7 8 -8 15 -2 15 5 0 15 -7 22 -15z"/>
<path d="M3323 2418 l27 -10 -22 -18 c-22 -18 -22 -20 -5 -36 16 -18 17 -17
17 4 0 14 8 26 22 31 l21 8 -24 16 c-13 9 -33 17 -44 16 -16 0 -14 -3 8 -11z"/>
<path d="M3391 2377 c-12 -15 -5 -27 17 -27 11 0 12 3 3 13 -6 8 -8 17 -4 20
3 4 4 7 1 7 -3 0 -11 -6 -17 -13z"/>
<path d="M2893 2372 c-13 -2 -23 -8 -23 -13 0 -12 67 -12 74 0 7 11 -21 18
-51 13z"/>
<path d="M3369 2331 c14 -25 28 -34 35 -22 3 5 -6 16 -20 26 -25 16 -25 16
-15 -4z"/>
<path d="M3037 2303 c-4 -3 -7 -11 -7 -17 0 -6 5 -5 12 2 6 6 9 14 7 17 -3 3
-9 2 -12 -2z"/>
<path d="M3233 2263 c-18 -6 -16 -23 1 -23 17 0 30 16 19 23 -5 2 -14 2 -20 0z"/>
<path d="M3340 2249 c0 -5 5 -7 10 -4 6 3 10 8 10 11 0 2 -4 4 -10 4 -5 0 -10
-5 -10 -11z"/>
<path d="M2481 2184 c0 -11 3 -14 6 -6 3 7 2 16 -1 19 -3 4 -6 -2 -5 -13z"/>
<path d="M2790 2186 c0 -9 5 -16 10 -16 6 0 10 4 10 9 0 6 -4 13 -10 16 -5 3
-10 -1 -10 -9z"/>
<path d="M2167 2025 c-4 -8 -2 -17 3 -20 6 -4 10 3 10 14 0 25 -6 27 -13 6z"/>
<path d="M3446 1828 c-4 -51 -12 -112 -18 -135 -9 -39 -12 -41 -30 -32 -32 17
-148 7 -160 -14 -11 -21 -38 -22 -38 -1 0 18 -58 79 -67 71 -3 -4 16 -33 43
-67 l49 -60 118 0 117 0 0 165 c0 91 -2 165 -4 165 -2 0 -7 -42 -10 -92z"/>
<path d="M3333 1725 c-9 -10 -10 -16 -2 -21 15 -9 36 13 24 25 -6 6 -15 4 -22
-4z"/>
</g>
</svg>
