<?xml version="1.0" standalone="no"?>
<!DOCTYPE svg PUBLIC "-//W3C//DTD SVG 20010904//EN"
 "http://www.w3.org/TR/2001/REC-SVG-20010904/DTD/svg10.dtd">
<svg version="1.0" xmlns="http://www.w3.org/2000/svg"
 width="280.000000pt" height="380.000000pt" viewBox="0 0 280.000000 380.000000"
 preserveAspectRatio="xMidYMid meet">
<metadata>
Created by potrace 1.16, written by Peter Selinger 2001-2019
</metadata>
<g transform="translate(0.000000,380.000000) scale(0.100000,-0.100000)"
fill="#000000" stroke="none">
<path d="M0 1900 l0 -1900 1039 0 1040 0 -8 28 c-29 101 -88 155 -258 237
-256 124 -395 239 -536 443 -42 63 -77 117 -77 121 0 4 -26 24 -57 45 -68 44
-89 43 -198 -8 -83 -40 -155 -108 -191 -181 -29 -60 -42 -65 -174 -65 l-75 0
-36 58 c-79 123 -89 151 -96 282 -4 88 -10 120 -19 120 -7 0 -16 -4 -19 -10
-3 -5 -45 -10 -92 -10 l-85 0 4 128 c5 135 26 215 85 319 13 25 23 46 21 49
-2 2 -61 11 -131 21 l-127 18 0 82 c0 45 5 85 10 88 6 3 10 21 10 38 1 26 9
38 42 62 43 32 262 182 294 202 18 11 14 16 -46 77 -39 38 -82 72 -107 81 -36
14 -43 21 -43 43 0 22 -8 30 -40 44 l-40 17 0 84 0 84 128 7 c70 3 164 9 210
13 l82 6 -30 51 c-105 176 -249 504 -331 751 -32 95 -33 107 -34 255 l0 155
93 3 94 3 41 -37 c23 -20 107 -100 187 -178 246 -240 344 -311 585 -427 80
-38 147 -69 148 -69 2 0 7 60 10 133 10 195 61 475 108 585 11 24 19 46 19 48
0 2 -315 4 -700 4 l-700 0 0 -1900z"/>
<path d="M1712 3688 c59 -225 208 -647 262 -744 13 -22 59 -85 103 -140 44
-54 106 -137 138 -184 31 -47 94 -125 139 -173 121 -132 126 -142 126 -264 0
-100 0 -102 28 -122 24 -17 278 -141 288 -141 2 0 4 423 4 940 l0 940 -559 0
-559 0 30 -112z"/>
<path d="M1506 3520 c-28 -88 -31 -110 -16 -110 9 0 14 23 13 58 -1 6 3 12 7
12 4 0 11 17 15 38 l8 37 21 -67 c36 -114 43 -93 11 32 -9 36 -20 69 -25 73
-4 5 -19 -28 -34 -73z"/>
<path d="M344 3389 c-3 -6 -1 -16 4 -21 8 -8 11 -5 9 11 -1 24 -3 25 -13 10z"/>
<path d="M505 3380 c10 -11 20 -20 23 -20 3 0 -3 9 -13 20 -10 11 -20 20 -23
20 -3 0 3 -9 13 -20z"/>
<path d="M1467 3373 c-3 -16 -3 -30 -1 -33 7 -7 24 23 24 43 0 27 -17 20 -23
-10z"/>
<path d="M1580 3391 c0 -5 5 -13 10 -16 6 -3 10 -15 10 -26 0 -11 6 -27 14
-35 8 -7 12 -24 9 -36 -3 -16 -2 -19 5 -10 7 11 11 10 16 -4 4 -10 2 -21 -5
-24 -8 -6 -8 -9 0 -14 6 -4 11 -4 11 1 0 4 5 1 10 -7 17 -27 10 3 -23 89 -18
46 -38 86 -44 89 -7 2 -13 -1 -13 -7z"/>
<path d="M370 3376 c0 -2 8 -10 18 -17 15 -13 16 -12 3 4 -13 16 -21 21 -21
13z"/>
<path d="M1460 3316 c0 -9 5 -16 10 -16 6 0 10 4 10 9 0 6 -4 13 -10 16 -5 3
-10 -1 -10 -9z"/>
<path d="M1456 3279 c-2 -8 -7 -39 -10 -69 -3 -30 -9 -72 -12 -92 -4 -23 -3
-38 3 -38 6 0 10 12 10 28 0 15 5 61 11 102 10 68 9 103 -2 69z"/>
<path d="M1657 3185 c-4 -8 -2 -17 3 -20 6 -4 10 -16 11 -28 1 -20 2 -20 8 3
12 43 -8 83 -22 45z"/>
<path d="M1352 3100 c0 -14 2 -19 5 -12 2 6 2 18 0 25 -3 6 -5 1 -5 -13z"/>
<path d="M1684 3108 c-4 -6 0 -16 8 -22 8 -6 13 -16 11 -23 -2 -7 1 -22 8 -35
7 -13 12 -29 11 -35 -2 -7 2 -13 8 -13 6 0 10 -6 9 -12 -5 -30 13 -67 32 -65
22 2 26 17 4 17 -10 0 -15 10 -15 28 0 30 -51 172 -62 172 -4 0 -10 -5 -14
-12z"/>
<path d="M508 3044 c3 -46 8 -57 27 -66 16 -7 25 -22 29 -49 3 -21 11 -39 16
-39 6 0 10 -8 10 -19 0 -20 34 -31 100 -31 29 0 39 4 43 20 5 18 14 20 96 20
l91 0 0 -46 c0 -27 6 -51 15 -60 11 -11 15 -38 15 -100 0 -77 -2 -84 -20 -84
-17 0 -20 -7 -20 -46 0 -36 -4 -47 -18 -51 -14 -3 -18 -11 -14 -29 2 -13 10
-24 18 -24 7 0 25 -5 39 -12 21 -9 25 -18 25 -55 0 -43 0 -43 36 -43 30 0 37
-5 46 -28 l11 -28 147 4 147 4 7 -33 c3 -19 5 -165 4 -325 0 -160 2 -296 6
-302 4 -7 0 -22 -8 -34 -15 -21 -16 -17 -16 68 l0 91 -25 -5 c-25 -4 -25 -4
-25 70 0 41 -4 78 -9 83 -17 17 -23 78 -9 86 10 7 10 9 0 9 -8 0 -11 10 -7 29
5 27 -1 33 -58 74 -62 45 -407 389 -407 407 0 5 -19 2 -42 -6 -23 -8 -47 -12
-54 -10 -23 9 -24 -8 -2 -31 12 -13 18 -23 14 -23 -4 0 7 -15 23 -32 17 -18
31 -37 31 -43 1 -5 7 4 16 20 l14 30 -5 -28 c-4 -18 -2 -26 4 -23 6 4 8 -2 6
-14 -2 -11 1 -23 7 -26 7 -5 8 -2 3 7 -8 12 -6 12 9 0 12 -10 14 -16 5 -21 -6
-4 -7 -10 -2 -13 14 -9 32 7 30 25 -2 9 -9 23 -16 32 -12 14 -12 16 3 10 9 -3
16 -10 16 -16 0 -5 5 -6 10 -3 15 9 12 -18 -4 -40 -12 -17 -12 -21 3 -35 9 -8
21 -24 27 -35 7 -11 18 -19 26 -17 8 1 25 -10 39 -25 18 -20 19 -24 4 -13 -11
8 -23 19 -26 23 -3 5 -9 1 -13 -9 -4 -10 -4 -15 0 -11 4 4 18 0 31 -8 13 -9
23 -12 23 -9 0 4 10 -1 22 -12 l22 -19 -17 28 c-10 15 -13 27 -8 27 16 0 33
-40 28 -61 -3 -11 -1 -16 5 -13 12 8 49 -26 42 -38 -4 -6 3 -5 14 1 29 15 31
14 27 -14 -2 -19 3 -27 21 -31 13 -3 24 -10 24 -14 0 -5 14 -11 30 -15 17 -4
30 -13 30 -21 0 -19 -10 -18 -27 4 -14 16 -14 16 -9 -1 5 -14 -1 -22 -24 -30
-16 -6 -30 -17 -30 -23 0 -14 -55 -35 -66 -26 -4 4 -4 1 0 -6 5 -9 17 -11 33
-7 17 4 23 2 18 -6 -5 -7 -21 -9 -41 -6 -26 5 -34 2 -34 -10 0 -11 -6 -14 -23
-9 -16 3 -24 1 -24 -7 0 -8 12 -11 35 -9 24 3 33 1 28 -7 -5 -8 11 -11 56 -9
l63 1 -50 7 -50 7 62 1 c34 1 65 -2 68 -8 3 -5 -2 -10 -12 -11 -11 0 -13 -3
-5 -6 9 -4 10 -8 2 -18 -8 -9 -8 -15 0 -20 5 -3 10 -1 10 5 0 6 5 8 11 4 8 -5
6 -10 -5 -16 -9 -5 -20 -7 -25 -4 -5 3 -9 -9 -9 -27 0 -17 -5 -45 -11 -60 -6
-15 -10 -33 -8 -40 1 -7 -4 -11 -10 -10 -7 2 -13 -1 -13 -6 0 -6 9 -9 19 -8
11 0 19 6 18 12 -1 5 6 9 16 9 14 -2 17 7 18 55 0 31 3 50 6 44 2 -7 20 -13
39 -13 27 0 34 -4 34 -19 0 -10 -7 -21 -15 -25 -8 -3 -15 -13 -15 -23 0 -15 2
-16 10 -3 8 13 10 13 10 -1 0 -9 -7 -19 -15 -23 -18 -6 -21 -92 -4 -116 8 -12
9 -10 4 8 -4 13 -2 22 5 22 6 0 13 -13 17 -30 3 -16 10 -30 15 -30 5 0 4 -10
-3 -21 -10 -20 -9 -21 10 -16 11 3 20 2 19 -2 -1 -3 3 -16 10 -27 6 -12 8 -25
4 -29 -4 -3 0 -5 8 -3 9 2 14 -4 14 -14 -2 -21 24 -12 30 10 2 10 7 38 11 65
5 40 10 47 28 47 15 0 18 3 10 8 -10 6 -10 12 3 28 8 10 13 13 9 7 -3 -7 -2
-13 4 -13 5 0 11 5 13 12 5 14 38 20 38 6 0 -6 -7 -8 -15 -4 -22 8 -18 -2 6
-15 15 -8 19 -8 15 0 -4 6 -1 11 8 11 8 0 18 -5 22 -11 3 -6 15 -9 25 -6 12 3
17 1 12 -6 -4 -6 0 -8 10 -4 11 4 17 1 17 -8 0 -8 5 -15 11 -15 5 0 8 -4 5 -9
-3 -5 2 -8 12 -7 9 0 16 -5 14 -12 -2 -10 2 -10 19 -1 18 9 25 7 43 -12 l21
-23 -23 18 c-12 11 -25 16 -29 12 -4 -3 3 -13 15 -22 12 -8 20 -19 17 -24 -3
-4 3 -14 13 -21 15 -12 15 -12 6 1 -9 11 -9 18 1 27 9 8 16 9 20 3 3 -6 1 -10
-6 -10 -7 0 -5 -8 6 -20 13 -14 14 -20 5 -20 -9 0 -8 -6 5 -20 10 -11 21 -18
24 -15 3 4 -1 10 -9 15 -8 6 -10 10 -5 10 13 0 27 -11 45 -35 14 -19 14 -19
-2 -6 -15 11 -19 11 -24 -4 -4 -9 -2 -21 5 -28 15 -15 14 -27 -4 -27 -13 0
-12 -4 5 -22 l20 -22 31 23 c18 13 29 19 25 13 -3 -6 -2 -13 4 -17 5 -3 10 -2
10 2 0 13 39 13 46 1 5 -7 1 -9 -9 -5 -9 3 -19 3 -21 -2 -3 -4 0 -8 7 -9 26
-2 47 -9 54 -17 4 -4 3 -5 -3 -2 -15 9 -27 -20 -12 -29 7 -4 8 -3 4 4 -13 21
8 12 32 -13 18 -18 31 -23 60 -20 20 1 45 3 54 4 10 1 23 11 29 23 12 22 11
22 -6 8 -17 -14 -18 -14 -6 8 10 19 9 22 -9 22 -12 0 -33 12 -47 26 -14 14
-23 19 -20 11 3 -9 -1 -14 -11 -13 -27 2 -46 18 -68 56 -29 51 -35 70 -21 67
7 -1 11 7 9 18 -2 15 0 17 6 6 7 -9 12 -10 16 -2 4 6 0 21 -8 33 l-15 22 -10
-25 -10 -24 3 25 c1 14 6 33 11 43 4 10 5 21 1 24 -3 4 -6 -1 -6 -11 0 -15 -2
-16 -15 -2 -18 17 -20 30 -3 20 8 -5 9 3 5 27 l-6 34 13 -29 c12 -27 13 -27
19 -7 3 11 1 21 -3 21 -5 0 -12 10 -15 21 -5 15 -10 18 -15 9 -5 -8 -9 -7 -14
5 -9 26 -7 53 5 61 8 5 10 -1 7 -20 -3 -14 -2 -26 2 -26 5 0 10 20 12 45 2 33
0 45 -10 45 -9 0 -12 -6 -8 -16 4 -10 1 -14 -6 -12 -18 6 -44 78 -31 86 6 4 9
23 8 42 -1 19 3 42 9 50 6 8 7 12 2 8 -4 -4 -18 4 -31 18 -12 13 -27 24 -34
24 -23 0 -10 -221 25 -411 l6 -37 -58 54 c-31 30 -98 75 -148 101 -82 43 -99
49 -176 54 l-85 5 97 2 c69 1 98 -2 101 -10 3 -8 6 -6 6 5 1 15 12 17 86 17
l85 0 0 -48 c0 -36 5 -54 20 -67 18 -16 20 -16 20 -2 0 10 -4 17 -10 17 -5 0
-10 23 -10 50 0 29 -5 50 -11 50 -7 0 -9 31 -7 90 2 67 0 90 -9 90 -10 0 -13
25 -13 90 0 50 4 90 9 90 5 0 11 10 14 22 11 41 22 7 28 -90 l7 -97 -2 113
c-1 101 0 112 16 112 17 0 24 16 30 70 3 23 5 22 37 -23 19 -26 53 -58 76 -72
31 -18 44 -33 49 -56 5 -27 9 -31 32 -26 21 4 25 1 21 -14 -3 -11 -1 -19 4
-19 17 0 49 -40 49 -61 0 -11 -4 -18 -10 -14 -5 3 -7 12 -3 20 3 8 -1 15 -8
15 -7 0 -10 -3 -6 -6 8 -9 -14 -30 -40 -38 -27 -9 -37 -33 -16 -40 11 -5 14
-15 9 -41 -6 -29 -4 -34 9 -29 11 4 15 0 15 -16 0 -11 -4 -18 -10 -15 -6 4
-10 -7 -10 -24 0 -28 8 -36 32 -32 4 0 4 -7 1 -16 -4 -9 -2 -14 3 -10 6 3 16
2 24 -4 12 -7 9 -9 -10 -10 l-25 -1 25 -8 c14 -4 35 -5 47 -3 15 3 25 -2 33
-16 6 -12 20 -21 31 -21 12 0 33 -6 47 -14 15 -8 35 -17 45 -20 10 -3 17 -15
17 -29 0 -13 6 -29 13 -36 10 -10 8 -12 -8 -9 -11 2 -19 10 -17 16 3 15 -15
16 -20 2 -2 -7 -18 -5 -46 4 -24 9 -53 15 -65 15 -12 0 -33 2 -47 5 -21 5 -21
4 3 -5 15 -6 27 -15 25 -21 -2 -5 -6 -9 -8 -8 -3 1 -17 -3 -31 -8 -15 -6 -31
-7 -40 -1 -12 7 -11 13 4 40 17 31 17 32 -9 56 -17 16 -24 31 -21 44 3 12 -4
34 -18 55 -23 34 -23 58 2 138 4 15 1 18 -11 13 -12 -5 -16 0 -16 19 0 39 29
94 46 87 8 -3 14 0 14 7 0 17 -50 3 -76 -21 -17 -16 -23 -17 -27 -7 -2 7 -8 9
-13 5 -5 -4 -4 -11 1 -15 6 -4 17 -16 25 -26 14 -18 13 -19 -2 -13 -10 3 -20
1 -24 -5 -4 -7 -3 -8 4 -4 7 4 12 2 12 -3 0 -6 -9 -11 -19 -11 -34 0 -51 -12
-50 -34 1 -16 2 -17 6 -3 7 28 25 20 21 -10 -2 -23 1 -29 20 -31 23 -4 31 -35
11 -48 -16 -10 -1 -56 28 -81 l25 -22 -20 -28 c-28 -40 -32 -69 -9 -65 10 2
27 -6 36 -17 10 -12 23 -21 29 -21 5 0 12 -7 16 -15 3 -9 0 -15 -10 -15 -8 0
-12 5 -9 10 8 13 2 13 -30 -2 -14 -6 -25 -16 -25 -22 1 -25 18 -33 70 -32 49
1 55 3 58 24 3 20 6 21 20 10 9 -8 13 -8 9 -1 -5 8 10 10 55 6 86 -6 87 -7 94
-53 4 -22 10 -40 14 -40 12 0 -7 -85 -30 -136 -21 -44 -21 -46 -3 -59 61 -46
282 -84 379 -66 32 6 79 11 106 11 l48 0 -1 323 c0 217 -3 314 -10 298 -14
-35 -92 -141 -131 -179 -32 -30 -40 -32 -109 -35 -73 -3 -75 -2 -130 38 -53
39 -106 62 -218 97 -53 17 -60 30 -26 48 14 7 23 15 21 18 -3 2 -10 1 -16 -3
-17 -11 -121 -11 -128 -1 -3 5 0 6 6 2 7 -4 12 -2 12 4 0 6 5 8 11 4 7 -4 26
9 45 32 19 21 34 35 34 30 0 -5 7 -3 15 4 8 7 22 10 30 6 9 -3 13 -2 10 4 -3
6 1 13 9 16 9 3 13 11 10 18 -4 6 1 4 10 -5 15 -14 16 -22 7 -55 -18 -63 -15
-74 17 -67 55 12 77 9 76 -10 -2 -16 7 -18 83 -16 50 1 89 -3 95 -9 16 -16 37
15 38 53 0 18 8 38 20 48 12 10 20 29 20 46 0 27 -7 33 -65 62 -77 37 -137 44
-143 15 -8 -39 9 -126 24 -126 8 0 13 -3 10 -8 -2 -4 -25 -6 -50 -4 -50 4 -48
1 -50 87 -1 34 -31 48 -39 18 -4 -17 -5 -17 -6 1 -1 15 -7 17 -29 13 -32 -6
-46 0 -55 26 -5 14 0 19 23 24 17 3 30 9 30 14 0 5 7 9 16 9 8 0 12 -4 9 -10
-4 -6 5 -10 19 -10 24 0 26 4 26 43 0 23 -7 53 -16 65 -8 12 -10 22 -5 22 13
0 14 39 3 57 -5 8 -13 9 -22 3 -12 -7 -12 -12 -2 -22 16 -16 16 -34 0 -20 -10
8 -13 0 -15 -35 -1 -25 -4 -48 -7 -50 -8 -9 -57 7 -52 16 3 5 -2 8 -12 7 -9 0
-16 4 -15 10 1 6 -11 11 -27 12 -42 1 -54 10 -39 29 11 12 10 14 -7 11 -13 -2
-18 2 -16 12 2 8 0 12 -4 8 -4 -4 -13 -3 -21 3 -9 9 -17 8 -28 -1 -8 -6 -19
-9 -25 -5 -15 9 -12 25 4 19 24 -9 28 14 5 30 -12 8 -18 19 -14 25 3 6 -1 18
-9 27 -9 8 -16 11 -16 5 0 -6 -4 -11 -10 -11 -14 0 -12 27 3 34 8 4 7 5 -3 5
-29 -2 -43 1 -37 8 4 3 2 12 -4 20 -9 9 -8 13 0 13 15 0 14 40 -1 41 -7 0 -4
4 7 9 31 13 93 12 98 -2 3 -10 9 -10 24 -1 12 7 25 8 34 2 22 -14 33 -11 20 5
-7 8 -21 13 -33 11 -15 -3 -18 0 -13 13 3 9 3 13 -1 9 -4 -4 -13 -2 -21 4 -7
6 -13 8 -13 5 0 -4 -7 -1 -15 7 -18 18 -92 30 -142 22 -28 -4 -33 -3 -18 4 11
5 35 10 53 10 30 1 32 4 32 34 0 25 6 37 23 45 21 10 20 11 -10 11 -25 1 -33
5 -33 19 0 26 -61 52 -120 52 -43 0 -49 3 -52 23 -3 19 -10 22 -51 25 -30 2
-50 8 -54 18 -3 9 -20 14 -49 14 -36 0 -44 3 -44 18 0 23 -51 54 -57 35 -5
-14 -99 -17 -202 -7 l-61 7 0 58 c0 46 -3 59 -15 59 -8 0 -15 9 -15 20 0 13
-7 20 -19 20 -11 0 -26 7 -35 15 -8 8 -22 15 -30 15 -9 0 -16 5 -16 10 0 6
-16 10 -35 10 -24 0 -35 5 -35 15 0 10 -10 15 -27 15 -16 0 -53 7 -83 15 -30
8 -87 15 -127 15 l-72 0 -3 52 c-3 47 -6 53 -35 67 -18 9 -33 22 -33 29 0 8
-20 12 -65 12 -37 0 -65 4 -65 10 0 6 -3 10 -7 10 -5 0 -6 -25 -5 -56z m422
-818 c0 -11 -19 -15 -25 -6 -3 5 1 10 9 10 9 0 16 -2 16 -4z m125 -56 c3 -5 2
-10 -4 -10 -5 0 -13 5 -16 10 -3 6 -2 10 4 10 5 0 13 -4 16 -10z m940 -40 c3
-5 1 -10 -4 -10 -6 0 -11 5 -11 10 0 6 2 10 4 10 3 0 8 -4 11 -10z m-767 -62
c8 -10 2 -13 -24 -14 -38 -1 -46 12 -11 19 12 2 23 5 23 6 1 0 6 -5 12 -11z
m1075 -158 c-3 -12 -6 -19 -7 -18 -1 2 -8 11 -15 21 -12 15 -11 17 7 17 15 0
19 -5 15 -20z m-1086 -35 c0 -8 -7 -15 -15 -15 -12 0 -12 3 -2 15 7 8 13 15
15 15 1 0 2 -7 2 -15z m53 5 c0 -5 -4 -10 -10 -10 -5 0 -10 5 -10 10 0 6 5 10
10 10 6 0 10 -4 10 -10z m721 -33 c-13 -13 -26 -3 -16 12 3 6 11 8 17 5 6 -4
6 -10 -1 -17z m149 -51 c0 -12 -6 -28 -12 -35 -11 -10 -9 -11 7 -5 11 4 16 3
12 -1 -4 -5 -30 -9 -57 -10 -48 0 -49 0 -34 22 7 12 14 33 14 46 0 33 7 37 41
20 19 -9 29 -22 29 -37z m390 8 c8 -8 9 -14 4 -13 -23 4 -30 -3 -28 -33 1 -18
-1 -23 -3 -10 -2 12 -8 20 -12 18 -4 -3 -8 1 -8 9 0 8 10 18 21 22 19 6 18 8
-9 14 -29 6 -29 7 -4 8 15 0 32 -6 39 -15z m26 -23 c-4 -5 0 -12 6 -14 8 -3 6
-6 -4 -6 -18 -1 -24 10 -11 22 9 10 15 8 9 -2z m-342 -11 c-15 -15 -56 -17
-61 -2 -3 8 7 12 33 12 25 0 35 -3 28 -10z m335 -26 c4 3 8 -1 8 -9 0 -8 -2
-15 -5 -15 -8 0 -31 34 -31 45 0 6 4 2 10 -8 6 -9 14 -15 18 -13z m-242 -21
c-3 -10 -5 -4 -5 12 0 17 2 24 5 18 2 -7 2 -21 0 -30z m-17 -3 c0 -5 -5 -10
-11 -10 -5 0 -7 5 -4 10 3 6 8 10 11 10 2 0 4 -4 4 -10z m155 -30 c3 -6 -4
-10 -17 -10 -18 0 -20 2 -8 10 19 12 18 12 25 0z m75 0 c0 -5 -5 -10 -11 -10
-5 0 -7 5 -4 10 3 6 8 10 11 10 2 0 4 -4 4 -10z m-653 -62 c-3 -8 -6 -5 -6 6
-1 11 2 17 5 13 3 -3 4 -12 1 -19z m243 1 c0 -6 -4 -7 -10 -4 -5 3 -10 11 -10
16 0 6 5 7 10 4 6 -3 10 -11 10 -16z m127 -65 c-3 -3 -12 -4 -19 -1 -8 3 -5 6
6 6 11 1 17 -2 13 -5z m-597 -49 c0 -8 -4 -15 -10 -15 -5 0 -7 7 -4 15 4 8 8
15 10 15 2 0 4 -7 4 -15z m960 -200 l0 -125 -88 0 -89 0 -42 50 c-43 51 -44
65 -3 31 12 -11 22 -26 22 -35 0 -9 7 -16 15 -16 8 0 15 7 15 15 0 20 130 22
131 3 0 -7 5 1 10 17 10 29 13 55 17 143 1 23 4 42 7 42 3 0 5 -56 5 -125z
m-84 -43 c-4 -3 -12 0 -19 8 -9 10 -9 11 1 6 8 -5 12 3 14 26 l1 33 4 -33 c3
-19 2 -37 -1 -40z"/>
<path d="M2110 1785 c7 -9 15 -13 17 -11 7 7 -7 26 -19 26 -6 0 -6 -6 2 -15z"/>
<path d="M1430 3006 c-5 -67 -6 -70 -35 -78 -20 -5 -32 -3 -37 5 -4 7 -8 -5
-8 -28 0 -37 3 -42 38 -58 20 -9 64 -33 97 -52 33 -20 70 -40 83 -45 12 -5 39
-21 58 -34 30 -20 33 -25 17 -28 -10 -2 2 -5 26 -5 30 0 47 -5 53 -17 7 -12
17 -16 36 -11 16 3 50 -3 81 -15 30 -11 56 -18 59 -16 6 7 -109 47 -140 49
-15 1 -28 5 -28 10 0 4 -9 7 -21 7 -19 0 -109 46 -109 56 0 2 15 10 33 18 22
10 26 15 13 15 -11 1 -27 -6 -37 -15 -15 -14 -22 -12 -78 19 -33 18 -58 37
-54 41 4 4 1 5 -7 2 -24 -9 -43 9 -35 33 3 11 11 21 17 21 7 0 7 4 0 13 -6 7
-13 51 -14 97 l-3 85 -5 -69z"/>
<path d="M800 3021 c0 -10 30 -24 37 -17 3 2 -5 9 -16 16 -12 6 -21 7 -21 1z"/>
<path d="M1351 3014 c0 -11 3 -14 6 -6 3 7 2 16 -1 19 -3 4 -6 -2 -5 -13z"/>
<path d="M1770 2864 c1 -19 26 -49 43 -50 21 -2 22 6 2 32 -11 14 -15 16 -15
4 0 -12 -4 -10 -15 4 -8 11 -15 16 -15 10z"/>
<path d="M1890 2850 c6 -11 13 -20 16 -20 2 0 0 9 -6 20 -6 11 -13 20 -16 20
-2 0 0 -9 6 -20z"/>
<path d="M1455 2849 c-10 -15 -2 -19 24 -12 17 4 19 8 9 14 -18 12 -26 11 -33
-2z"/>
<path d="M1530 2845 c7 -8 20 -15 29 -15 13 1 13 3 -3 15 -26 19 -42 19 -26 0z"/>
<path d="M1570 2795 c15 -18 40 -20 40 -2 0 7 -12 14 -26 15 -22 2 -25 0 -14
-13z"/>
<path d="M1811 2778 c6 -13 18 -31 27 -40 8 -10 15 -32 16 -50 1 -33 22 -51
28 -24 2 10 14 2 38 -27 19 -23 27 -36 17 -28 -10 8 -20 12 -23 9 -2 -3 32
-24 78 -47 46 -22 107 -59 136 -81 28 -22 52 -36 52 -32 0 10 -62 96 -72 100
-5 2 -8 10 -8 17 0 7 -12 16 -26 19 -22 6 -24 9 -13 22 10 12 10 15 -2 12 -8
-2 -17 -7 -21 -13 -4 -6 -8 -2 -8 8 0 10 -5 15 -10 12 -6 -4 -9 -1 -8 7 2 9
-7 13 -29 12 -20 0 -30 3 -27 11 3 7 -9 18 -26 25 -19 8 -29 18 -26 26 5 13
-29 30 -51 26 -7 -2 -13 2 -13 8 0 5 7 10 17 10 14 0 14 2 -2 20 -10 11 -27
20 -37 20 -16 0 -17 -3 -7 -22z"/>
<path d="M1320 2786 c0 -2 7 -7 16 -10 8 -3 12 -2 9 4 -6 10 -25 14 -25 6z"/>
<path d="M1430 2783 c8 -3 24 -10 35 -15 20 -9 20 -9 1 6 -11 9 -27 16 -35 15
-14 0 -14 -1 -1 -6z"/>
<path d="M620 2753 c0 -4 5 -15 10 -23 8 -13 10 -13 10 2 0 9 -4 20 -10 23 -5
3 -10 3 -10 -2z"/>
<path d="M1665 2730 c6 -9 69 -30 93 -30 24 0 12 18 -19 29 -39 14 -82 14 -74
1z"/>
<path d="M1780 2730 c0 -5 5 -10 10 -10 6 0 10 5 10 10 0 6 -4 10 -10 10 -5 0
-10 -4 -10 -10z"/>
<path d="M1816 2703 c-4 -9 -1 -20 6 -25 21 -13 31 -9 18 7 -6 8 -9 19 -5 25
3 5 2 10 -3 10 -6 0 -13 -8 -16 -17z"/>
<path d="M700 2616 c0 -11 30 -39 36 -34 2 3 -5 13 -16 23 -11 10 -20 15 -20
11z"/>
<path d="M2105 2355 c41 -22 95 -76 95 -93 0 -8 8 -21 18 -29 9 -8 11 -12 5
-8 -7 3 -13 2 -13 -4 0 -17 42 -25 51 -10 7 11 9 10 9 -3 0 -10 4 -18 9 -18
12 0 -5 63 -29 111 -21 41 -49 56 -122 64 l-53 7 30 -17z"/>
<path d="M2032 2351 c-11 -7 -10 -9 3 -14 9 -4 14 -3 10 2 -3 5 1 12 7 14 7 3
9 6 3 6 -5 0 -16 -3 -23 -8z"/>
<path d="M540 2320 c-54 -6 -54 -6 -27 -18 16 -7 33 -12 38 -12 5 0 9 -7 9
-15 0 -10 10 -15 30 -15 26 0 30 -4 30 -26 0 -26 20 -54 39 -54 6 0 11 -4 11
-10 0 -5 11 -12 25 -16 24 -6 25 -8 25 -99 l0 -93 -35 -6 c-19 -4 -40 -13 -48
-20 -21 -21 -74 -46 -99 -46 -13 0 -40 -16 -61 -35 -21 -19 -49 -38 -61 -41
-26 -6 -44 -60 -26 -78 7 -7 10 0 10 22 l0 32 130 0 c80 0 130 -4 130 -10 0
-5 7 -10 15 -10 13 0 15 -20 15 -124 l0 -124 -27 -6 c-16 -3 -45 -8 -65 -12
-35 -6 -37 -8 -40 -48 l-3 -41 -55 -6 -55 -6 66 -1 c73 -2 79 -8 79 -78 0 -36
16 -44 88 -44 l42 0 0 -90 0 -90 -60 0 -60 0 0 -40 c0 -34 -3 -40 -21 -40 -14
0 -19 -5 -17 -18 3 -14 16 -18 65 -20 52 -2 66 1 83 18 11 11 24 20 28 20 17
0 72 32 72 41 0 5 11 9 25 9 33 0 118 22 126 33 9 13 238 3 296 -13 38 -11 56
-22 65 -40 22 -44 40 -60 70 -60 30 0 48 -27 48 -75 0 -26 25 -45 59 -45 17 0
20 -8 23 -57 3 -52 5 -58 27 -61 13 -2 26 -12 28 -23 3 -10 9 -19 14 -19 5 0
9 -9 9 -20 0 -15 7 -20 29 -20 47 0 61 -10 61 -41 0 -25 4 -29 29 -29 29 0 61
-22 61 -41 0 -5 11 -9 24 -9 16 0 27 -7 31 -20 4 -13 19 -23 36 -27 16 -3 34
-14 40 -24 8 -15 67 -49 85 -49 2 0 4 31 4 70 0 66 1 70 25 76 19 5 25 13 25
35 0 26 4 29 30 29 20 0 30 5 30 15 0 10 10 15 29 15 l29 0 -6 106 c-4 80 -2
108 8 114 21 13 1 30 -36 30 -22 0 -34 5 -34 14 0 17 -22 26 -65 26 -29 0 -34
4 -37 28 -3 23 -8 27 -40 30 -29 2 -38 8 -38 21 0 11 -12 24 -30 31 -17 7 -41
26 -55 41 -13 16 -28 29 -33 29 -5 0 -31 24 -59 53 -83 86 -181 175 -187 169
-3 -2 -8 3 -12 12 -15 39 -24 9 -24 -79 l0 -95 -84 0 c-77 0 -86 2 -101 23 -8
12 -17 20 -19 17 -5 -9 -56 44 -56 59 0 8 -3 11 -7 8 -11 -11 -71 88 -84 137
l-11 46 -59 0 -59 0 0 55 0 55 -88 0 -89 0 -6 98 c-12 174 -10 201 16 213 21
9 22 15 19 94 -3 82 -4 85 -28 85 -14 0 -24 6 -24 14 0 7 -7 19 -15 26 -8 7
-12 16 -9 21 3 5 0 8 -8 7 -7 -2 -12 3 -11 9 2 7 -3 12 -10 10 -6 -1 -11 4
-10 10 2 7 -2 12 -9 10 -6 -1 -18 10 -25 25 -7 15 -22 30 -33 33 -11 4 -20 9
-20 13 0 4 -11 20 -25 35 -27 28 -30 28 -125 17z"/>
<path d="M995 2300 c3 -5 8 -10 11 -10 2 0 4 5 4 10 0 6 -5 10 -11 10 -5 0 -7
-4 -4 -10z"/>
<path d="M2132 2276 c1 -14 6 -22 10 -20 5 3 6 10 3 15 -4 5 -1 9 4 9 6 0 11
5 11 10 0 6 -7 10 -15 10 -10 0 -14 -9 -13 -24z"/>
<path d="M1968 2263 c7 -3 16 -2 19 1 4 3 -2 6 -13 5 -11 0 -14 -3 -6 -6z"/>
<path d="M2156 2253 c-3 -3 4 -14 16 -24 25 -23 25 -23 25 -5 0 15 -32 38 -41
29z"/>
<path d="M2216 2187 c3 -10 9 -15 12 -12 3 3 0 11 -7 18 -10 9 -11 8 -5 -6z"/>
<path d="M2283 2140 c0 -25 2 -35 4 -22 2 12 2 32 0 45 -2 12 -4 2 -4 -23z"/>
<path d="M995 1990 c-3 -5 -1 -10 4 -10 6 0 11 5 11 10 0 6 -2 10 -4 10 -3 0
-8 -4 -11 -10z"/>
<path d="M1910 1988 c0 -10 -8 -15 -22 -14 -14 1 -22 -4 -20 -11 1 -7 -4 -12
-10 -10 -7 1 -12 -6 -10 -15 2 -11 -3 -18 -13 -18 -8 0 -15 -5 -15 -11 0 -6 6
-9 14 -6 8 3 17 1 20 -6 3 -9 5 -9 5 1 1 19 21 14 22 -5 0 -11 3 -13 6 -5 2 6
14 12 24 12 11 0 17 -4 14 -10 -3 -6 1 -7 9 -4 11 4 13 11 7 22 -5 10 -9 22
-10 27 -1 6 -5 10 -10 10 -6 0 -16 6 -23 14 -10 10 -10 12 0 7 13 -8 29 20 18
31 -3 4 -6 -1 -6 -9z"/>
<path d="M1994 1953 c6 -12 -11 -18 -36 -14 -5 0 -8 -3 -8 -9 0 -5 14 -10 30
-10 17 0 33 0 37 -1 4 0 9 5 11 13 2 9 0 8 -7 -2 -10 -14 -12 -13 -15 9 0 5
-5 13 -10 18 -5 5 -6 3 -2 -4z"/>
<path d="M2228 1953 c7 -3 16 -2 19 1 4 3 -2 6 -13 5 -11 0 -14 -3 -6 -6z"/>
<path d="M935 1820 c-3 -6 1 -7 9 -4 18 7 21 14 7 14 -6 0 -13 -4 -16 -10z"/>
<path d="M2235 1750 c-3 -5 -1 -10 4 -10 6 0 11 5 11 10 0 6 -2 10 -4 10 -3 0
-8 -4 -11 -10z"/>
<path d="M1041 1714 c0 -11 3 -14 6 -6 3 7 2 16 -1 19 -3 4 -6 -2 -5 -13z"/>
<path d="M1891 1714 c0 -11 3 -14 6 -6 3 7 2 16 -1 19 -3 4 -6 -2 -5 -13z"/>
<path d="M1887 1683 c-4 -3 -7 -11 -7 -17 0 -6 5 -5 12 2 6 6 9 14 7 17 -3 3
-9 2 -12 -2z"/>
<path d="M520 1624 c0 -8 5 -12 10 -9 6 3 10 10 10 16 0 5 -4 9 -10 9 -5 0
-10 -7 -10 -16z"/>
<path d="M2569 1583 l-24 -28 28 24 c25 23 32 31 24 31 -2 0 -14 -12 -28 -27z"/>
<path d="M2467 1566 c-4 -10 -1 -13 8 -9 8 3 12 9 9 14 -7 12 -11 11 -17 -5z"/>
<path d="M1391 1374 c-13 -30 -12 -33 18 -39 12 -2 19 0 16 6 -4 5 -11 6 -17
3 -8 -5 -9 3 -5 24 8 39 4 41 -12 6z"/>
<path d="M2098 1318 c-14 -23 -24 -47 -21 -55 7 -19 27 -11 31 13 2 10 11 25
19 31 12 9 14 18 7 33 -8 18 -11 16 -36 -22z"/>
<path d="M1960 1339 c0 -5 -4 -7 -10 -4 -15 9 -12 -6 10 -45 l19 -35 -2 32
c-1 17 -6 29 -11 26 -4 -3 -5 4 -1 16 3 11 4 21 1 21 -3 0 -6 -5 -6 -11z"/>
<path d="M1420 1311 c0 -6 4 -13 10 -16 6 -3 7 1 4 9 -7 18 -14 21 -14 7z"/>
<path d="M1995 1259 c-10 -15 3 -25 16 -12 7 7 7 13 1 17 -6 3 -14 1 -17 -5z"/>
<path d="M2365 860 c-3 -5 -1 -10 4 -10 6 0 11 5 11 10 0 6 -2 10 -4 10 -3 0
-8 -4 -11 -10z"/>
<path d="M2308 843 c7 -3 16 -2 19 1 4 3 -2 6 -13 5 -11 0 -14 -3 -6 -6z"/>
<path d="M2785 831 c-6 -5 -65 -38 -133 -74 -121 -63 -122 -64 -102 -82 12
-10 37 -53 58 -94 37 -75 37 -75 40 -223 4 -145 3 -148 -17 -148 -16 0 -21 -6
-21 -25 0 -25 -1 -25 -83 -25 l-84 0 -24 37 c-13 20 -34 43 -46 51 l-23 14 0
-72 c0 -41 -7 -97 -17 -126 -15 -50 -19 -53 -52 -57 -20 -2 89 -4 242 -5 l277
-2 0 420 c0 231 -1 420 -3 420 -2 0 -7 -4 -12 -9z"/>
<path d="M2316 535 c4 -8 8 -15 10 -15 2 0 4 7 4 15 0 8 -4 15 -10 15 -5 0 -7
-7 -4 -15z"/>
<path d="M2126 489 c3 -6 0 -15 -7 -20 -7 -4 -10 -12 -5 -16 5 -4 11 -2 13 5
3 6 9 10 14 6 11 -6 11 -2 3 20 -3 9 -10 16 -16 16 -5 0 -6 -5 -2 -11z"/>
</g>
</svg>
